<svg width="48" height="48" viewBox="0 0 48 48" fill="none" xmlns="http://www.w3.org/2000/svg">
<g id="Icons/ic_logo">
<path id="logo" fill-rule="evenodd" clip-rule="evenodd" d="M38.638 8.99287C38.6765 8.9424 38.7124 8.89005 38.7452 8.83559L38.7552 8.81941C38.7598 8.81199 38.7645 8.80458 38.7688 8.7971C38.8057 8.73231 38.839 8.66541 38.8678 8.59593L38.8701 8.58989L38.8724 8.58329C38.8738 8.57938 38.8752 8.57545 38.8767 8.57151C38.9008 8.51048 38.9211 8.44757 38.9384 8.38349C38.9429 8.36729 38.9471 8.35133 38.9509 8.3349C38.9669 8.26729 38.9802 8.19851 38.988 8.12809L38.9889 8.12181L38.9898 8.11588C38.9965 8.05438 39 7.99218 39 7.92903V1.76055C39 0.788255 38.2071 0 37.2291 0H11.7709C10.7929 0 10 0.788255 10 1.76055V7.92927C10 7.99241 10.0038 8.05462 10.0102 8.11612L10.0111 8.12188L10.012 8.12832C10.0201 8.19875 10.0331 8.26752 10.0491 8.33513C10.0519 8.34727 10.0552 8.35941 10.0584 8.37155L10.0584 8.37157L10.0616 8.38372C10.0789 8.4478 10.0992 8.51071 10.1233 8.57175L10.1271 8.58239C10.1287 8.58695 10.1304 8.59155 10.1322 8.59616C10.1608 8.66564 10.1941 8.73254 10.2312 8.79733C10.2357 8.8052 10.2405 8.81282 10.2452 8.82044L10.2453 8.82045L10.2453 8.82048L10.2548 8.83583C10.2878 8.89029 10.3235 8.94264 10.362 8.9931C10.3652 8.99721 10.3679 9.00156 10.3707 9.0059C10.3735 9.01024 10.3763 9.01458 10.3795 9.01869L22.2458 24L10.3795 38.9813C10.376 38.9856 10.3731 38.9902 10.3703 38.9947C10.3676 38.9988 10.365 39.003 10.362 39.0069C10.3235 39.0574 10.2876 39.1097 10.2548 39.1642L10.2448 39.1803L10.2447 39.1805L10.2447 39.1805C10.2401 39.1879 10.2355 39.1952 10.2312 39.2027C10.1943 39.2675 10.161 39.3344 10.1322 39.4038C10.1305 39.408 10.129 39.4122 10.1276 39.4165L10.1276 39.4165C10.1262 39.4204 10.1248 39.4243 10.1233 39.4283C10.0992 39.4893 10.0789 39.5522 10.0616 39.6163C10.0571 39.6325 10.0529 39.6484 10.0491 39.6649C10.0331 39.7325 10.0198 39.8013 10.012 39.8717L10.0111 39.8774L10.0102 39.8839C10.0035 39.9454 10 40.0076 10 40.0707V46.2395C10 47.2117 10.7929 48 11.7709 48H37.2291C38.2071 48 39 47.2117 39 46.2395V40.0707C39 40.0076 38.9962 39.9454 38.9898 39.8839L38.9889 39.8781L38.988 39.8717C38.9799 39.8013 38.9669 39.7325 38.9509 39.6649C38.9471 39.6487 38.9426 39.6325 38.9384 39.6163C38.9211 39.5522 38.9008 39.4893 38.8767 39.4283L38.8733 39.4189C38.8716 39.4139 38.8698 39.4089 38.8678 39.4038C38.8392 39.3344 38.8059 39.2675 38.7688 39.2027C38.7652 39.1964 38.7615 39.1903 38.7577 39.1843C38.7535 39.1776 38.7493 39.1709 38.7452 39.1642C38.7122 39.1097 38.6765 39.0574 38.638 39.0069C38.6359 39.0041 38.6339 39.0012 38.632 38.9983L38.6293 38.9941L38.6293 38.9941C38.6265 38.9897 38.6237 38.9854 38.6206 38.9813L26.7542 24L38.6206 9.01869C38.6241 9.01429 38.627 9.00961 38.63 9.00492L38.63 9.0049L38.63 9.00488L38.633 9.00012L38.6356 8.9962L38.638 8.99287ZM36 3V6H14V3H36ZM14 42V45H36V42H14ZM16 38L25 27L34 38H16ZM16 10L25 21L34 10H16Z" fill="#2EBC4F"/>
</g>
</svg>
